REM DIRINDEX 1\5,1\2\6,1\2\7,1\3\8,1\3\9,1\4\10,1\4\11,1\4\12
REM DIRNAME folder01,folder02,folder03,folder04,folder05,folder06,folder07,folder08,folder09,folder10,folder11,folder12
TITLE ""
FILE "EJE_DB3000_5th_6C_36.mp3" MP3
  TRACK 01 AUDIO
    TITLE "0:"
    INDEX 01 00:00:00
  TRACK 02 AUDIO
    TITLE "10:cjc026_11544"
    INDEX 01 00:00:05
  TRACK 03 AUDIO
    TITLE "0:"
    INDEX 01 00:00:74
  TRACK 04 AUDIO
    TITLE "11:cjc026_11545"
    INDEX 01 00:01:24
  TRACK 05 AUDIO
    TITLE "0:"
    INDEX 01 00:02:30
  TRACK 06 AUDIO
    TITLE "12:cjc026_11546"
    INDEX 01 00:02:55
  TRACK 07 AUDIO
    TITLE "0:"
    INDEX 01 00:03:49
  TRACK 08 AUDIO
    TITLE "10:cjc026_11547"
    INDEX 01 00:03:74
  TRACK 09 AUDIO
    TITLE "0:"
    INDEX 01 00:04:72
  TRACK 10 AUDIO
    TITLE "11:cjc026_11548"
    INDEX 01 00:05:22
  TRACK 11 AUDIO
    TITLE "0:"
    INDEX 01 00:06:16
  TRACK 12 AUDIO
    TITLE "12:cjc026_11549"
    INDEX 01 00:06:41
  TRACK 13 AUDIO
    TITLE "0:"
    INDEX 01 00:07:39
  TRACK 14 AUDIO
    TITLE "10:cjc026_11550"
    INDEX 01 00:07:64
  TRACK 15 AUDIO
    TITLE "0:"
    INDEX 01 00:08:56
  TRACK 16 AUDIO
    TITLE "11:cjc026_11551"
    INDEX 01 00:09:08
  TRACK 17 AUDIO
    TITLE "0:"
    INDEX 01 00:10:06
  TRACK 18 AUDIO
    TITLE "12:cjc026_11552"
    INDEX 01 00:10:31
  TRACK 19 AUDIO
    TITLE "0:"
    INDEX 01 00:11:25
  TRACK 20 AUDIO
    TITLE "10:cjc026_11553"
    INDEX 01 00:11:48
  TRACK 21 AUDIO
    TITLE "0:"
    INDEX 01 00:12:60
  TRACK 22 AUDIO
    TITLE "11:cjc026_11554"
    INDEX 01 00:13:12
  TRACK 23 AUDIO
    TITLE "0:"
    INDEX 01 00:14:07
  TRACK 24 AUDIO
    TITLE "12:cjc026_11555"
    INDEX 01 00:14:33
  TRACK 25 AUDIO
    TITLE "0:"
    INDEX 01 00:15:44
  TRACK 26 AUDIO
    TITLE "10:cjc026_11556"
    INDEX 01 00:15:72
  TRACK 27 AUDIO
    TITLE "0:"
    INDEX 01 00:16:69
  TRACK 28 AUDIO
    TITLE "11:cjc026_11557"
    INDEX 01 00:17:20
  TRACK 29 AUDIO
    TITLE "0:"
    INDEX 01 00:18:23
  TRACK 30 AUDIO
    TITLE "12:cjc026_11558"
    INDEX 01 00:18:50
  TRACK 31 AUDIO
    TITLE "0:"
    INDEX 01 00:19:48
  TRACK 32 AUDIO
    TITLE "10:cjc026_11559"
    INDEX 01 00:20:00
  TRACK 33 AUDIO
    TITLE "0:"
    INDEX 01 00:21:02
  TRACK 34 AUDIO
    TITLE "11:cjc026_11560"
    INDEX 01 00:21:27
  TRACK 35 AUDIO
    TITLE "0:"
    INDEX 01 00:22:21
  TRACK 36 AUDIO
    TITLE "12:cjc026_11561"
    INDEX 01 00:22:48
  TRACK 37 AUDIO
    TITLE "0:"
    INDEX 01 00:23:50
  TRACK 38 AUDIO
    TITLE "10:cjc026_11562"
    INDEX 01 00:24:02
  TRACK 39 AUDIO
    TITLE "0:"
    INDEX 01 00:24:71
  TRACK 40 AUDIO
    TITLE "11:cjc026_11563"
    INDEX 01 00:25:21
  TRACK 41 AUDIO
    TITLE "0:"
    INDEX 01 00:26:18
  TRACK 42 AUDIO
    TITLE "12:cjc026_11564"
    INDEX 01 00:26:44
  TRACK 43 AUDIO
    TITLE "0:"
    INDEX 01 00:27:39
  TRACK 44 AUDIO
    TITLE "10:cjc026_11565"
    INDEX 01 00:27:65
  TRACK 45 AUDIO
    TITLE "0:"
    INDEX 01 00:28:72
  TRACK 46 AUDIO
    TITLE "11:cjc026_11566"
    INDEX 01 00:29:25
  TRACK 47 AUDIO
    TITLE "0:"
    INDEX 01 00:30:22
  TRACK 48 AUDIO
    TITLE "12:cjc026_11567"
    INDEX 01 00:30:48
  TRACK 49 AUDIO
    TITLE "0:"
    INDEX 01 00:31:55
  TRACK 50 AUDIO
    TITLE "10:cjc026_11568"
    INDEX 01 00:32:05
  TRACK 51 AUDIO
    TITLE "0:"
    INDEX 01 00:33:13
  TRACK 52 AUDIO
    TITLE "11:cjc026_11569"
    INDEX 01 00:33:38
  TRACK 53 AUDIO
    TITLE "0:"
    INDEX 01 00:34:38
  TRACK 54 AUDIO
    TITLE "12:cjc026_11570"
    INDEX 01 00:34:65
  TRACK 55 AUDIO
    TITLE "0:"
    INDEX 01 00:35:70
  TRACK 56 AUDIO
    TITLE "10:cjc026_11571"
    INDEX 01 00:36:23
  TRACK 57 AUDIO
    TITLE "0:"
    INDEX 01 00:37:18
  TRACK 58 AUDIO
    TITLE "11:cjc026_11572"
    INDEX 01 00:37:46
  TRACK 59 AUDIO
    TITLE "0:"
    INDEX 01 00:39:37
  TRACK 60 AUDIO
    TITLE "12:cjc026_11573"
    INDEX 01 00:39:66
  TRACK 61 AUDIO
    TITLE "0:"
    INDEX 01 00:40:60
  TRACK 62 AUDIO
    TITLE "10:cjc026_11574"
    INDEX 01 00:41:10
  TRACK 63 AUDIO
    TITLE "0:"
    INDEX 01 00:42:14
  TRACK 64 AUDIO
    TITLE "11:cjc026_11575"
    INDEX 01 00:42:39
  TRACK 65 AUDIO
    TITLE "0:"
    INDEX 01 00:44:44
  TRACK 66 AUDIO
    TITLE "12:cjc026_11576"
    INDEX 01 00:44:67
  TRACK 67 AUDIO
    TITLE "0:"
    INDEX 01 00:45:69
  TRACK 68 AUDIO
    TITLE "10:cjc026_11577"
    INDEX 01 00:46:19
  TRACK 69 AUDIO
    TITLE "0:"
    INDEX 01 00:47:15
  TRACK 70 AUDIO
    TITLE "11:cjc026_11578"
    INDEX 01 00:47:44
  TRACK 71 AUDIO
    TITLE "0:"
    INDEX 01 00:49:35
  TRACK 72 AUDIO
    TITLE "12:cjc026_11579"
    INDEX 01 00:49:61
  TRACK 73 AUDIO
    TITLE "0:"
    INDEX 01 00:50:58
